<svg xmlns="http://www.w3.org/2000/svg" width="28" height="20" fill="none" viewBox="0 0 28 20"><rect width="28" height="20" fill="#fff" rx="2"/><mask id="mask0" width="28" height="20" x="0" y="0" mask-type="alpha" maskUnits="userSpaceOnUse"><rect width="28" height="20" fill="#fff" rx="2"/></mask><g mask="url(#mask0)"><g filter="url(#filter0_d)"><path fill="#262626" fill-rule="evenodd" d="M0 13.3334H28V6.66669H0V13.3334Z" clip-rule="evenodd"/></g><g filter="url(#filter1_d)"><path fill="#34B857" fill-rule="evenodd" d="M0 20H28V13.3333H0V20Z" clip-rule="evenodd"/></g><path fill="#F41F34" fill-rule="evenodd" d="M0 6.66667H28V0H0V6.66667Z" clip-rule="evenodd"/><path fill="#fff" fill-rule="evenodd" d="M14 12C14.4113 12 14.7936 11.8759 15.1114 11.663C15.0746 11.6654 15.0374 11.6667 15 11.6667C14.0795 11.6667 13.3333 10.9205 13.3333 10C13.3333 9.07953 14.0795 8.33333 15 8.33333C15.0374 8.33333 15.0746 8.33457 15.1114 8.337C14.7936 8.12414 14.4113 8 14 8C12.8954 8 12 8.89543 12 10C12 11.1046 12.8954 12 14 12ZM16 10C16 10.3682 15.7015 10.6667 15.3333 10.6667C14.9651 10.6667 14.6667 10.3682 14.6667 10C14.6667 9.63181 14.9651 9.33333 15.3333 9.33333C15.7015 9.33333 16 9.63181 16 10Z" clip-rule="evenodd"/></g><defs><filter id="filter0_d" width="28" height="6.667" x="0" y="6.667" color-interpolation-filters="sRGB" filterUnits="userSpaceOnUse"><feFlood flood-opacity="0" result="BackgroundImageFix"/><feColorMatrix in="SourceAlpha" type="matrix" values="0 0 0 0 0 0 0 0 0 0 0 0 0 0 0 0 0 0 127 0"/><feOffset/><feColorMatrix type="matrix" values="0 0 0 0 0 0 0 0 0 0 0 0 0 0 0 0 0 0 0.06 0"/><feBlend in2="BackgroundImageFix" mode="normal" result="effect1_dropShadow"/><feBlend in="SourceGraphic" in2="effect1_dropShadow" mode="normal" result="shape"/></filter><filter id="filter1_d" width="28" height="6.667" x="0" y="13.333" color-interpolation-filters="sRGB" filterUnits="userSpaceOnUse"><feFlood flood-opacity="0" result="BackgroundImageFix"/><feColorMatrix in="SourceAlpha" type="matrix" values="0 0 0 0 0 0 0 0 0 0 0 0 0 0 0 0 0 0 127 0"/><feOffset/><feColorMatrix type="matrix" values="0 0 0 0 0 0 0 0 0 0 0 0 0 0 0 0 0 0 0.06 0"/><feBlend in2="BackgroundImageFix" mode="normal" result="effect1_dropShadow"/><feBlend in="SourceGraphic" in2="effect1_dropShadow" mode="normal" result="shape"/></filter></defs></svg>